<svg id="Capa_1" enable-background="new 0 0 512 512" height="512" viewBox="0 0 512 512" width="512" xmlns="http://www.w3.org/2000/svg"><g><path d="m159.186 0c-36.26 0-65.761 29.5-65.761 65.761v305.372h-11.539c-38.813 0-70.389 31.576-70.389 70.389s31.576 70.389 70.386 70.389l418.62.089v-512zm-35.788 65.761c0-19.734 16.055-35.789 35.789-35.789h14.62v341.161h-50.409zm-81.929 375.761c0-22.286 18.131-40.417 40.417-40.417h264.401c-5.276 7.494-9.128 16.054-11.159 25.294h-252.995v29.972h252.931c2.02 9.369 5.914 18.043 11.263 25.625l-264.441-.056c-22.286-.001-40.417-18.132-40.417-40.418zm429.062 40.499-66.667-.014v-.068c-22.287 0-40.418-18.131-40.418-40.417s18.131-40.417 40.418-40.417v-29.972c-.427 0-.849.025-1.274.032v-.032h-198.812v-341.161h266.753z"/><path d="m258.536 84.956h154.375v29.972h-154.375z"/><path d="m258.536 144.904h154.375v29.972h-154.375z"/></g></svg>